<svg xmlns="http://www.w3.org/2000/svg" viewBox="0 0 160 160"><path fill="#bf3b68" d="M61.8316 58.4014l7.2955-34.3824h81.9149c4.389 0 7.946 3.5635 7.946 7.9592 0 .5585-.059 1.1155-.175 1.6617l-20.021 93.9441c-1.044 4.897-5.363 8.397-10.361 8.397H95.7456l14.9964-69.8739c.738-3.4381-1.446-6.8243-4.878-7.5635a6.3497 6.3497 0 00-1.336-.1422z"/><path fill="#f84982" d="M52.811 64.2425a8.107 8.107 0 00-.107.436l-5.9366 27.5032c-.6182 2.8643 1.1986 5.6883 4.0581 6.3076a5.286 5.286 0 001.1194.1199h18.7043c2.9255 0 5.2971 2.3756 5.2971 5.3061 0 .3735-.0394.746-.1174 1.1112l-6.6182 30.9545H8.9577c-4.3883 0-7.9457-3.564-7.9457-7.959a7.97 7.97 0 01.1751-1.662l20.0216-93.9444c1.0436-4.8966 5.3622-8.3966 10.3608-8.3966h29.7291z"/></svg>
