<svg width="2572" height="508" viewBox="0 0 2572 508" fill="none" xmlns="http://www.w3.org/2000/svg">
<path d="M29.1 294.2V231.8L154.5 197V233L52.5 260.3V265.7L154.5 293V329L29.1 294.2ZM199.891 158H351.091V195.8H295.291V368H255.691V195.8H199.891V158ZM536.583 295.4C536.583 307.8 534.483 318.8 530.283 328.4C526.083 337.8 520.383 345.8 513.183 352.4C505.983 358.8 497.683 363.7 488.283 367.1C479.083 370.5 469.383 372.2 459.183 372.2C448.983 372.2 439.183 370.5 429.783 367.1C420.583 363.7 412.383 358.8 405.183 352.4C397.983 345.8 392.283 337.8 388.083 328.4C383.883 318.8 381.783 307.8 381.783 295.4V291.8C381.783 279.6 383.883 268.8 388.083 259.4C392.283 249.8 397.983 241.7 405.183 235.1C412.383 228.5 420.583 223.5 429.783 220.1C439.183 216.7 448.983 215 459.183 215C469.383 215 479.083 216.7 488.283 220.1C497.683 223.5 505.983 228.5 513.183 235.1C520.383 241.7 526.083 249.8 530.283 259.4C534.483 268.8 536.583 279.6 536.583 291.8V295.4ZM459.183 336.2C464.583 336.2 469.683 335.3 474.483 333.5C479.283 331.7 483.483 329.1 487.083 325.7C490.683 322.3 493.483 318.2 495.483 313.4C497.683 308.4 498.783 302.8 498.783 296.6V290.6C498.783 284.4 497.683 278.9 495.483 274.1C493.483 269.1 490.683 264.9 487.083 261.5C483.483 258.1 479.283 255.5 474.483 253.7C469.683 251.9 464.583 251 459.183 251C453.783 251 448.683 251.9 443.883 253.7C439.083 255.5 434.883 258.1 431.283 261.5C427.683 264.9 424.783 269.1 422.583 274.1C420.583 278.9 419.583 284.4 419.583 290.6V296.6C419.583 302.8 420.583 308.4 422.583 313.4C424.783 318.2 427.683 322.3 431.283 325.7C434.883 329.1 439.083 331.7 443.883 333.5C448.683 335.3 453.783 336.2 459.183 336.2ZM675.274 219.2H713.074V368H675.274V346.4H669.874C663.274 363.6 649.074 372.2 627.274 372.2C619.874 372.2 612.974 371 606.574 368.6C600.174 366.2 594.574 362.5 589.774 357.5C584.974 352.5 581.174 346.3 578.374 338.9C575.774 331.3 574.474 322.4 574.474 312.2V219.2H612.274V304.4C612.274 315 614.774 323.3 619.774 329.3C624.774 335.1 632.274 338 642.274 338C653.674 338 661.974 334.4 667.174 327.2C672.574 319.8 675.274 309.8 675.274 297.2V219.2ZM750.966 219.2H813.966V240.8H819.366C822.166 232.6 826.866 226.3 833.466 221.9C840.266 217.3 848.366 215 857.766 215C872.566 215 884.466 219.7 893.466 229.1C902.466 238.3 906.966 252.4 906.966 271.4V278L867.966 281.6V277.4C867.966 269.2 865.866 262.7 861.666 257.9C857.466 252.9 851.166 250.4 842.766 250.4C834.366 250.4 827.766 253.3 822.966 259.1C818.166 264.9 815.766 273.2 815.766 284V332H849.966V368H747.366V332H777.966V255.2H750.966V219.2ZM979.657 368H941.857V219.2H979.657V241.4H985.057C988.457 233 993.957 226.5 1001.56 221.9C1009.16 217.3 1018.06 215 1028.26 215C1035.46 215 1042.16 216.2 1048.36 218.6C1054.76 220.8 1060.36 224.3 1065.16 229.1C1069.96 233.9 1073.66 240 1076.26 247.4C1079.06 254.8 1080.46 263.6 1080.46 273.8V368H1042.66V283.4C1042.66 272.8 1040.06 264.5 1034.86 258.5C1029.86 252.3 1022.56 249.2 1012.96 249.2C1001.76 249.2 993.357 253 987.757 260.6C982.357 268 979.657 278 979.657 290.6V368ZM1221.85 346.4C1217.85 355.8 1212.25 362.5 1205.05 366.5C1197.85 370.3 1189.45 372.2 1179.85 372.2C1170.85 372.2 1162.35 370.5 1154.35 367.1C1146.55 363.7 1139.65 358.7 1133.65 352.1C1127.65 345.5 1122.85 337.5 1119.25 328.1C1115.85 318.7 1114.15 308 1114.15 296V291.2C1114.15 279.4 1115.85 268.8 1119.25 259.4C1122.65 250 1127.25 242 1133.05 235.4C1138.85 228.8 1145.55 223.8 1153.15 220.4C1160.95 216.8 1169.25 215 1178.05 215C1188.65 215 1197.15 216.8 1203.55 220.4C1210.15 224 1215.35 229.6 1219.15 237.2H1224.55V219.2H1262.35V323C1262.35 329 1265.05 332 1270.45 332H1276.15V368H1250.35C1243.55 368 1237.95 366 1233.55 362C1229.35 358 1227.25 352.8 1227.25 346.4H1221.85ZM1188.25 336.2C1199.25 336.2 1208.05 332.6 1214.65 325.4C1221.25 318 1224.55 308 1224.55 295.4V291.8C1224.55 279.2 1221.25 269.3 1214.65 262.1C1208.05 254.7 1199.25 251 1188.25 251C1177.25 251 1168.45 254.7 1161.85 262.1C1155.25 269.3 1151.95 279.2 1151.95 291.8V295.4C1151.95 308 1155.25 318 1161.85 325.4C1168.45 332.6 1177.25 336.2 1188.25 336.2ZM1458.64 368H1420.84V263.6C1420.84 259.4 1419.74 256.3 1417.54 254.3C1415.54 252.1 1412.84 251 1409.44 251C1405.44 251 1402.24 252.2 1399.84 254.6C1397.64 257 1396.54 260.6 1396.54 265.4V368H1358.74V263.6C1358.74 259.4 1357.54 256.3 1355.14 254.3C1352.94 252.1 1350.24 251 1347.04 251C1343.44 251 1340.44 252.2 1338.04 254.6C1335.64 257 1334.44 260.6 1334.44 265.4V368H1296.64V219.2H1334.44V233.6H1339.84C1341.04 228.2 1343.74 223.8 1347.94 220.4C1352.34 216.8 1358.04 215 1365.04 215C1371.64 215 1377.24 216.8 1381.84 220.4C1386.44 223.8 1389.54 228.2 1391.14 233.6H1396.54C1398.14 228.2 1401.44 223.8 1406.44 220.4C1411.64 216.8 1418.04 215 1425.64 215C1435.64 215 1443.64 218.4 1449.64 225.2C1455.64 231.8 1458.64 241 1458.64 252.8V368ZM1526.23 305.9C1526.43 310.3 1527.43 314.4 1529.23 318.2C1531.23 321.8 1533.83 325 1537.03 327.8C1540.43 330.4 1544.23 332.5 1548.43 334.1C1552.83 335.5 1557.43 336.2 1562.23 336.2C1571.63 336.2 1578.83 334.6 1583.83 331.4C1588.83 328 1592.43 324 1594.63 319.4L1627.03 337.4C1625.23 341.2 1622.73 345.2 1619.53 349.4C1616.33 353.4 1612.13 357.1 1606.93 360.5C1601.93 363.9 1595.73 366.7 1588.33 368.9C1581.13 371.1 1572.63 372.2 1562.83 372.2C1551.63 372.2 1541.43 370.4 1532.23 366.8C1523.03 363.2 1515.03 358 1508.23 351.2C1501.63 344.4 1496.43 336.1 1492.63 326.3C1489.03 316.5 1487.23 305.4 1487.23 293V291.2C1487.23 279.8 1489.13 269.4 1492.93 260C1496.93 250.6 1502.33 242.6 1509.13 236C1515.93 229.4 1523.83 224.3 1532.83 220.7C1542.03 216.9 1551.83 215 1562.23 215C1575.03 215 1586.03 217.3 1595.23 221.9C1604.43 226.3 1612.03 232 1618.03 239C1624.03 245.8 1628.43 253.4 1631.23 261.8C1634.03 270 1635.43 278 1635.43 285.8V305.9H1526.23ZM1561.93 249.2C1552.33 249.2 1544.53 251.7 1538.53 256.7C1532.53 261.5 1528.63 267.1 1526.83 273.5H1597.03C1595.83 266.5 1592.03 260.7 1585.63 256.1C1579.43 251.5 1571.53 249.2 1561.93 249.2ZM1714.42 368H1676.62V219.2H1714.42V241.4H1719.82C1723.22 233 1728.72 226.5 1736.32 221.9C1743.92 217.3 1752.82 215 1763.02 215C1770.22 215 1776.92 216.2 1783.12 218.6C1789.52 220.8 1795.12 224.3 1799.92 229.1C1804.72 233.9 1808.42 240 1811.02 247.4C1813.82 254.8 1815.22 263.6 1815.22 273.8V368H1777.42V283.4C1777.42 272.8 1774.82 264.5 1769.62 258.5C1764.62 252.3 1757.32 249.2 1747.72 249.2C1736.52 249.2 1728.12 253 1722.52 260.6C1717.12 268 1714.42 278 1714.42 290.6V368ZM1856.11 219.2H1900.21V158H1938.01V219.2H1991.71V255.2H1938.01V323C1938.01 329 1940.71 332 1946.11 332H1986.31V368H1923.31C1916.51 368 1910.91 365.8 1906.51 361.4C1902.31 357 1900.21 351.4 1900.21 344.6V255.2H1856.11V219.2ZM2324 120.5L2358.2 131.3L2268.5 405.5L2234 394.7L2324 120.5ZM2417.09 329V293L2519.09 265.7V260.3L2417.09 233V197L2542.49 231.8V294.2L2417.09 329Z" fill="white"/>
</svg>
