<svg width="1000" height="424" viewBox="0 0 1000 424" fill="none" xmlns="http://www.w3.org/2000/svg">
<path fill-rule="evenodd" clip-rule="evenodd" d="M523.295 1.77153C516.242 4.20853 509.707 9.80853 506.571 16.1015C503.839 21.5835 503.454 25.6285 504.612 36.7035C505.185 42.1925 505.526 42.9005 508.112 43.9715C511.399 45.3335 511.636 46.5425 509.204 49.5555C507.788 51.3095 506.112 51.7765 499.933 52.1425C490.498 52.7005 485.638 55.3455 476.796 64.7355C469.886 72.0735 466.79 77.3255 456.94 98.4155L450.401 112.416L444.06 112.916L437.719 113.416L429.847 135.825C425.518 148.151 421.976 158.824 421.976 159.545C421.976 160.265 424.451 162.438 427.476 164.373C430.501 166.308 432.976 168.383 432.976 168.984C432.976 169.584 431.618 173.923 429.958 178.626C427.617 185.258 426.054 187.988 422.986 190.796C419.887 193.633 418.154 196.687 414.976 204.916C407.764 223.589 408.177 222.916 403.947 222.916C401.897 222.916 399.782 223.479 399.246 224.166C398.709 224.854 397.501 234.866 396.561 246.416C395.62 257.966 394.092 271.336 393.164 276.126C391.489 284.77 391.438 284.865 386.422 288.626C374.6 297.492 371.67 302.217 351.014 345.75C335.999 377.394 333.867 382.494 334.494 385.25C336.377 393.522 335.541 397.298 329.469 407.929C324.472 416.677 323.787 418.478 324.589 420.761L325.522 423.416L343.76 423.689C361.901 423.96 362.003 423.949 362.948 421.689C363.88 419.457 366.091 396.944 365.684 393.827C365.569 392.953 380.101 375.04 397.976 354.021C415.851 333.002 431.729 313.467 433.26 310.61C434.792 307.753 442.134 291.916 449.577 275.416C457.019 258.916 463.764 244.404 464.565 243.166C465.422 241.843 467.03 240.916 468.468 240.916C470.49 240.916 472.239 242.952 478.558 252.666C494.727 277.52 504.593 289.708 509.91 291.395C511.046 291.756 511.976 292.569 511.976 293.203C511.976 293.837 507.939 301.433 503.004 310.082L494.033 325.809L490.462 342.612C486.368 361.873 483.23 374.563 478.516 390.916C475.522 401.301 472.976 414.684 472.976 420.034C472.976 422.047 473.328 422.066 503.226 421.659C525.228 421.36 534.518 420.878 537.296 419.892C542.181 418.16 546.183 413.505 545.779 410.026C545.503 407.649 544.583 407.144 535.476 404.368C529.976 402.691 524.498 400.984 523.303 400.575C521.293 399.886 514.976 391.374 514.976 389.355C514.976 388.868 517.659 385.758 520.939 382.443C525.918 377.411 527.632 374.682 531.32 365.916C533.75 360.141 541.416 342.025 548.357 325.659C560.644 296.686 560.976 295.71 560.976 288.606C560.976 282.164 560.522 280.381 557.096 273.363C551.793 262.503 523.301 212.918 520.865 210.309C518.793 208.092 518.354 205.937 517.573 194.168L517.093 186.921L521.016 186.294C524.911 185.671 524.994 185.563 532.606 171.041C536.823 162.997 541.571 154.105 543.156 151.28L546.038 146.144L543.451 143.069C541.475 140.72 541.092 139.572 541.828 138.205C543.195 135.669 547.677 131.634 548.655 132.059C549.106 132.255 553.447 134.608 558.301 137.288C568.517 142.928 571.246 143.045 580.778 138.25C586.365 135.44 586.446 135.335 590.444 125.692C592.662 120.343 594.771 115.956 595.132 115.942C595.493 115.928 596.098 118.165 596.476 120.915C596.854 123.664 597.519 126.134 597.954 126.402C598.889 126.98 622.121 121.985 623.253 120.963C623.681 120.577 622.69 114.772 621.052 108.063C618.114 96.0325 618.098 95.8205 619.897 92.6405C620.899 90.8665 622.289 86.6035 622.985 83.1655L624.249 76.9155H658.113H691.976V70.4155V63.9155H705.476H718.976V60.4445V56.9735L705.726 56.6945L692.476 56.4155L692.388 52.9155C692.34 50.9905 692.228 48.8535 692.138 48.1655C691.826 45.7635 688.976 46.9435 686.735 50.4035L684.476 53.8905L626.226 53.9035L567.976 53.9155V51.4455C567.976 49.2225 568.348 48.9975 571.685 49.1955L575.395 49.4155L577.033 43.4155C580.222 31.7405 580.301 30.2155 577.75 29.5555C576.202 29.1545 574.622 27.1235 572.801 23.1915C564.83 5.98053 540.978 -4.33947 523.295 1.77153ZM135.976 117.604C103.158 123.054 77.239 143.067 63.692 173.416C61.728 177.816 58.117 186.141 55.669 191.916C53.22 197.691 42.111 223.791 30.981 249.916C19.852 276.041 8.931 301.677 6.713 306.884C1.571 318.956 0 324.931 0 332.416C0 353.532 14.519 371.916 35.518 377.385C40.611 378.711 55.044 378.916 143.508 378.916C257.653 378.916 251.431 379.298 258.669 371.848C260.827 369.627 263.929 364.57 265.831 360.173C271.734 346.524 282.976 319.742 282.976 319.327C282.976 319.106 236.723 318.811 180.192 318.671L77.408 318.416L88.289 292.916C94.273 278.891 106.547 250.155 115.565 229.059C124.583 207.962 131.759 190.373 131.511 189.973C131.263 189.572 124.9 186.358 117.37 182.83L103.679 176.416L219.578 175.916L335.476 175.416L339.476 173.258C346.577 169.426 348.627 166.141 358.984 141.996C364.48 129.185 368.976 118.301 368.976 117.81C368.976 116.942 141.173 116.74 135.976 117.604ZM741.976 118.895C731.229 121.219 726.354 122.999 717.174 127.951C702.697 135.759 691.017 146.661 682.52 160.294C675.892 170.928 657.224 215.526 655.806 224.116C653.563 237.699 658.193 251.978 668.308 262.673C674.176 268.878 679.134 272.046 687.462 274.911C693.109 276.854 695.83 276.916 775.633 276.916C820.921 276.916 857.976 277.037 857.976 277.186C857.976 277.334 854.031 286.672 849.21 297.936L840.443 318.416L731.46 318.916L622.476 319.416L618.476 321.569C610.578 325.819 609.858 327.158 588.287 377.692C587.846 378.723 612.041 378.913 714.609 378.684L841.476 378.4L849.476 376.148C870.618 370.196 889.136 357.559 901.702 340.508C907.489 332.656 909.617 328.366 922.089 299.416L932.429 275.416L932.453 263.416C932.476 251.611 932.416 251.29 928.761 243.636C922.633 230.802 911.994 221.894 898.476 218.277C894.498 217.213 876.876 216.937 812.226 216.928C767.539 216.921 730.976 216.757 730.976 216.564C730.976 216.37 733.043 211.307 735.569 205.314C738.095 199.32 740.56 193.401 741.046 192.161C741.874 190.049 741.067 189.47 728.203 182.964L714.476 176.021L838.36 175.968C933.435 175.928 963.2 175.63 966.353 174.685C968.763 173.963 972.365 171.585 975.063 168.935C979.104 164.965 980.79 161.745 988.95 142.416C994.058 130.316 998.645 119.629 999.142 118.666C1000 117.004 993.795 116.92 875.261 116.986C758.041 117.052 749.961 117.168 741.976 118.895Z" fill="white"/>
</svg>
